<?xml version="1.0" encoding="utf-8"?>
<!-- Generator: Adobe Illustrator 18.0.0, SVG Export Plug-In . SVG Version: 6.00 Build 0)  -->
<!DOCTYPE svg PUBLIC "-//W3C//DTD SVG 1.1//EN" "http://www.w3.org/Graphics/SVG/1.1/DTD/svg11.dtd">
<svg version="1.1" id="Layer_1" xmlns="http://www.w3.org/2000/svg" xmlns:xlink="http://www.w3.org/1999/xlink" x="0px" y="0px"
	 viewBox="0 0 118.6 60.9" enable-background="new 0 0 118.6 60.9" xml:space="preserve">
<path fill="#41EBFF" d="M50.2,45.9h-2.3C48.6,45.9,49.4,45.9,50.2,45.9z"/>
<g>
	<path fill="#41EBFF" d="M75.7,4.3c-0.2-0.3-1.4-0.7-2-0.9l-1.9-2.8c0,0-0.6-0.7-1-0.6c-0.4,0.2-0.2,1.1-0.2,1.1l0.8,3.3
		c-0.2,0.5-0.8,1.8-0.7,2.2C70.8,7.1,72.2,8,72.2,8s0.1,0.1,0.2,0c0.1-0.1,0-0.2,0-0.2s-0.3-0.5-0.2-0.9c0-0.2,0.1-0.7,0.3-0.9
		l0.8-0.4l0,0l0,0l0,0l0,0l0,0l0.8-0.4c0.3,0,0.8,0.3,0.9,0.4c0.3,0.2,0.5,0.8,0.5,0.8s0,0.1,0.1,0.1s0.2-0.1,0.2-0.1
		S76,4.8,75.7,4.3z"/>
	<path fill="#41EBFF" d="M74.8,26.6c1.1-5.3,0.5-10.9-1.4-15.9c-1.6-0.4-3.3-0.6-5-0.6c-8.6,0-15.8,5.5-18.6,13
		c-1.7-0.7-3.7-1.1-5.7-1.1c-8.3,0-15,6.7-15.1,15c-1.2-0.5-2.6-0.8-4-0.8c-5,0-9.1,3.7-9.7,8.5c0,0.6,0.6,1.1,1.2,1.1l0,0h31.2H50
		C61.7,45.5,72.3,38.4,74.8,26.6z"/>
	<path fill="#41EBFF" d="M90.6,33.1c-0.8,0-1.7,0.1-2.4,0.2c0.2-1.1,0.3-2.2,0.3-3.4c0-8.2-5-15.3-12.2-18.3
		c3.4,6.7,4.6,14.6,2.8,22.5c-0.9,4.3-2.7,8.3-5,11.7H102c0.7,0,1.2-0.6,1.2-1.2l0,0C102.7,38.2,97.3,33.1,90.6,33.1z"/>
</g>
</svg>
